<svg width="40" height="41" viewBox="0 0 40 41" fill="none" xmlns="http://www.w3.org/2000/svg">
<path d="M30.663 7.79679L30.9706 7.41169L30.59 7.09859C27.6746 4.70051 23.9721 3.26826 19.9218 3.26826C18.5028 3.26826 17.127 3.4663 15.8243 3.79075L15.0949 3.97243L15.5444 4.57493C16.935 6.43868 18.9326 9.25347 21.3249 13.6619L21.5316 14.0427L21.9379 13.8924C26.465 12.2177 29.1779 9.6561 30.663 7.79679ZM13.3627 5.04567L13.1179 4.72442L12.7524 4.89619C8.25652 7.00888 4.84964 11.0445 3.5047 15.9738L3.33785 16.5853L3.9714 16.6052C6.44717 16.6828 12.3652 16.5666 18.9226 14.8165L19.5429 14.651L19.2305 14.0901C16.687 9.52362 14.548 6.60109 13.3627 5.04567ZM32.8165 9.28849L32.4294 8.83031L32.0484 9.29357C30.3925 11.3069 27.5173 13.9224 22.9648 15.697L22.4568 15.8951L22.6979 16.384C23.6794 18.3745 24.6315 20.4957 25.4991 22.7864L25.6422 23.1644L26.0419 23.1036C29.3352 22.6026 32.3795 22.6026 34.679 22.782C35.2382 22.8282 35.5991 22.8801 36.019 22.9406C36.1075 22.9533 36.1985 22.9664 36.2946 22.9799L36.8062 23.0518L36.8613 22.5381C36.9288 21.9098 36.9676 21.2788 36.9676 20.6265C36.9676 16.2884 35.3899 12.3343 32.8165 9.28849ZM20.6697 16.8873L20.4845 16.5174L20.0865 16.6301C12.373 18.8132 5.57807 18.7465 3.4619 18.6614L2.98028 18.642L2.94328 19.1226L2.9407 19.1562C2.90414 19.6308 2.8666 20.1182 2.8666 20.6361C2.8666 25.8513 5.13153 30.5063 8.70262 33.6912L9.07464 34.023L9.40756 33.652C10.3027 32.6545 11.5032 31.3841 12.9628 30.0579L12.9648 30.0561C15.711 27.5341 19.2445 24.8653 23.0937 23.7009L23.612 23.5441L23.4145 23.0399C22.5529 20.8404 21.6253 18.7959 20.6697 16.8873ZM30.1597 24.7533L30.1543 24.7535C29.1432 24.8021 28.067 24.8992 26.9725 25.0447L26.3767 25.1238L26.563 25.6953C27.4867 28.5282 28.2508 31.5292 28.7444 34.651L28.8687 35.4377L29.5232 34.9837C32.7092 32.7735 35.1197 29.4887 36.2426 25.6322L36.4086 25.0619L35.8184 24.9955C34.3584 24.8313 32.5072 24.6658 30.1597 24.7533ZM24.5034 25.9349L24.3496 25.4826L23.8909 25.6156C20.5097 26.5957 16.9727 29.1372 14.2922 31.5884C12.997 32.7626 11.951 33.8771 11.1116 34.79L10.6966 35.2414L11.2223 35.5571C13.7678 37.0856 16.7234 37.9848 19.9124 37.9848C22.3058 37.9848 24.5633 37.481 26.625 36.5934L26.974 36.4432L26.9228 36.0668C26.4384 32.5062 25.5842 29.1127 24.5034 25.9349ZM0.867676 20.6265C0.867676 9.91677 9.43315 1.20312 19.9218 1.20312C30.4105 1.20312 38.9759 9.91677 38.9759 20.6265C38.9759 31.3362 30.4105 40.0499 19.9218 40.0499C9.43315 40.0499 0.867676 31.3362 0.867676 20.6265Z" fill="#070707" stroke="#070707"/>
</svg>
