<svg width="41" height="41" viewBox="0 0 41 41" fill="none" xmlns="http://www.w3.org/2000/svg">
<g clip-path="url(#clip0_169_15)">
<path d="M34.3201 0.918945H5.96036C2.72049 0.918945 0.0847168 3.53748 0.0847168 6.75616V34.9304C0.0847168 38.1491 2.72049 40.7677 5.96036 40.7677H34.3201C37.56 40.7677 40.1958 38.1491 40.1958 34.9304V6.75616C40.1958 3.53748 37.56 0.918945 34.3201 0.918945ZM37.8455 34.9304C37.8455 36.8616 36.264 38.4328 34.3201 38.4328H5.96036C4.0165 38.4328 2.43497 36.8616 2.43497 34.9304V6.75616C2.43497 4.82501 4.0165 3.25383 5.96036 3.25383H34.3201C36.264 3.25383 37.8455 4.82501 37.8455 6.75616V34.9304Z" fill="#070707" stroke="#070707" stroke-width="0.5"/>
<path d="M18.9651 17.3407C18.9651 14.7656 16.8566 12.6709 14.2646 12.6709H7.21387V29.0151H14.2646C16.8566 29.0151 18.9651 26.9204 18.9651 24.3453C18.9651 22.9517 18.3467 21.6994 17.3686 20.843C18.3467 19.9866 18.9651 18.7343 18.9651 17.3407ZM16.6149 24.3453C16.6149 25.6329 15.5606 26.6802 14.2646 26.6802H9.56412V22.0104H14.2646C15.5606 22.0104 16.6149 23.0578 16.6149 24.3453ZM9.56412 19.6756V15.0058H14.2646C15.5606 15.0058 16.6149 16.0531 16.6149 17.3407C16.6149 18.6282 15.5606 19.6756 14.2646 19.6756H9.56412Z" fill="#070707" stroke="#070707" stroke-width="0.5"/>
<path d="M27.1911 17.3408C23.9512 17.3408 21.3154 19.9594 21.3154 23.178C21.3154 26.3967 23.9512 29.0152 27.1911 29.0152C29.2821 29.0152 31.2321 27.8974 32.2799 26.0976L30.2455 24.9283C29.6163 26.0091 28.4458 26.6804 27.1911 26.6804C25.6588 26.6804 24.3521 25.7045 23.867 24.3455H33.0667V23.178C33.0667 19.9594 30.4309 17.3408 27.1911 17.3408ZM23.867 22.0106C24.3521 20.6516 25.6588 19.6757 27.1911 19.6757C28.7233 19.6757 30.03 20.6516 30.5151 22.0106H23.867Z" fill="#070707" stroke="#070707" stroke-width="0.5"/>
<path d="M22.4905 12.6709H31.8915V15.0058H22.4905V12.6709Z" fill="#070707" stroke="#070707" stroke-width="0.5"/>
</g>
<defs>
<clipPath id="clip0_169_15">
<rect width="40.111" height="39.8487" fill="white" transform="translate(0.0847168 0.918945)"/>
</clipPath>
</defs>
</svg>
