<svg width="40" height="41" viewBox="0 0 40 41" fill="none" xmlns="http://www.w3.org/2000/svg">
<path d="M12.1663 1.2127H12.6663V1.20312H28.571C34.5374 1.20312 39.4181 6.16988 39.4181 12.2712V28.9818C39.4181 35.0834 34.5371 40.0499 28.5804 40.0499H12.1663C6.19858 40.0499 1.30981 35.0913 1.30981 29.0009V12.2808C1.30981 6.18 6.19938 1.2127 12.1663 1.2127ZM3.31814 12.2894V12.2904V29.0105C3.31814 33.9806 7.24747 37.9951 12.1663 37.9951H28.5804C33.4819 37.9951 37.4097 33.9791 37.4097 28.9914V12.2808C37.4097 7.29269 33.4815 3.2771 28.571 3.2771H12.1663C7.25525 3.2771 3.32807 7.29302 3.31814 12.2894ZM31.4025 8.3737C31.4025 7.78881 31.8548 7.3415 32.4067 7.3415C32.9585 7.3415 33.4108 7.78881 33.4108 8.3737C33.4108 8.95859 32.9585 9.4059 32.4067 9.4059C31.8548 9.4059 31.4025 8.95859 31.4025 8.3737ZM10.3442 20.6313C10.3442 14.9997 14.8671 10.4059 20.3733 10.4059C25.8796 10.4059 30.4025 14.9997 30.4025 20.6313C30.4025 26.2629 25.8796 30.8567 20.3733 30.8567C14.8671 30.8567 10.3442 26.2629 10.3442 20.6313ZM28.3942 20.6313C28.3942 16.112 24.8322 12.4703 20.3733 12.4703C15.9145 12.4703 12.3525 16.112 12.3525 20.6313C12.3525 25.1505 15.9145 28.7923 20.3733 28.7923C24.8322 28.7923 28.3942 25.1505 28.3942 20.6313Z" fill="#070707" stroke="#070707"/>
</svg>
